<svg width="60" height="60" viewBox="0 0 60 60" fill="none" xmlns="http://www.w3.org/2000/svg">
<g clip-path="url(#clip0_28_2)">
<path fill-rule="evenodd" clip-rule="evenodd" d="M31.7674 39.2675C31.2986 39.7362 30.6628 39.9995 29.9999 39.9995C29.337 39.9995 28.7012 39.7362 28.2324 39.2675L14.0899 25.125C13.8511 24.8944 13.6606 24.6185 13.5296 24.3135C13.3986 24.0085 13.3296 23.6805 13.3268 23.3485C13.3239 23.0166 13.3871 22.6874 13.5128 22.3801C13.6385 22.0729 13.8242 21.7937 14.0589 21.559C14.2936 21.3243 14.5728 21.1387 14.88 21.0129C15.1872 20.8872 15.5164 20.824 15.8484 20.8269C16.1803 20.8298 16.5084 20.8987 16.8134 21.0297C17.1184 21.1608 17.3943 21.3512 17.6249 21.59L29.9999 33.965L42.3749 21.59C42.8464 21.1346 43.4779 20.8826 44.1334 20.8883C44.7889 20.894 45.4159 21.1569 45.8794 21.6205C46.3429 22.084 46.6059 22.711 46.6116 23.3665C46.6173 24.022 46.3653 24.6535 45.9099 25.125L31.7674 39.2675Z" fill="white"/>
</g>
<defs>
<clipPath id="clip0_28_2">
<rect width="60" height="60" fill="white"/>
</clipPath>
</defs>
</svg>
