<svg width="60" height="60" viewBox="0 0 60 60" fill="none" xmlns="http://www.w3.org/2000/svg">
<path d="M30 56.25C29.2918 56.2503 28.5959 56.064 27.9825 55.71L21.5625 51.9094C20.6044 51.3731 21.0713 51.1838 21.3881 51.0731C22.4071 50.7583 23.3828 50.3174 24.2925 49.7606C24.3686 49.7254 24.4525 49.7102 24.5362 49.7164C24.6199 49.7227 24.7005 49.7501 24.7706 49.7963L29.7038 52.7269C29.7956 52.7755 29.898 52.8009 30.0019 52.8009C30.1058 52.8009 30.2081 52.7755 30.3 52.7269L49.5375 41.6231C49.6275 41.5692 49.702 41.4928 49.7536 41.4014C49.8052 41.31 49.8322 41.2068 49.8319 41.1019V18.8906C49.8319 18.784 49.8045 18.6792 49.7523 18.5863C49.7001 18.4933 49.6248 18.4154 49.5338 18.36L30.2963 7.26563C30.2055 7.21454 30.1032 7.1877 29.9991 7.1877C29.895 7.1877 29.7926 7.21454 29.7019 7.26563L10.4756 18.3638C10.3839 18.418 10.3078 18.495 10.2546 18.5873C10.2013 18.6796 10.1729 18.7841 10.1719 18.8906V41.0925C10.1721 41.1972 10.2002 41.3 10.2533 41.3902C10.3063 41.4805 10.3824 41.5551 10.4738 41.6063L15.75 44.6513C18.6094 46.08 20.3606 44.3963 20.3606 42.705V20.7844C20.3606 20.6352 20.4199 20.4921 20.5254 20.3866C20.6309 20.2811 20.7739 20.2219 20.9231 20.2219H23.3606C23.5098 20.2219 23.6529 20.2811 23.7584 20.3866C23.8639 20.4921 23.9231 20.6352 23.9231 20.7844V42.7069C23.9231 46.5225 21.8456 48.7069 18.2269 48.7069C16.6657 48.7341 15.129 48.3166 13.7963 47.5031L8.73938 44.6025C8.12548 44.245 7.6161 43.7327 7.26208 43.1168C6.90806 42.5009 6.72179 41.8029 6.72188 41.0925V18.8906C6.72005 18.1791 6.90553 17.4797 7.25967 16.8626C7.61381 16.2454 8.12414 15.7324 8.73938 15.375L27.9788 4.2675C28.5985 3.92844 29.2936 3.75073 30 3.75073C30.7064 3.75073 31.4015 3.92844 32.0212 4.2675L51.2588 15.375C51.8726 15.7318 52.3821 16.2434 52.7364 16.8586C53.0908 17.4738 53.2776 18.1713 53.2781 18.8813V41.0925C53.2771 41.8029 53.0901 42.5007 52.7359 43.1164C52.3816 43.7322 51.8724 44.2445 51.2588 44.6025L32.0212 55.71C31.4067 56.0646 30.7095 56.2508 30 56.25Z" fill="#83CD29"/>
<path d="M26.3513 33.6619C26.3513 33.5127 26.4105 33.3696 26.516 33.2641C26.6215 33.1586 26.7646 33.0994 26.9138 33.0994H29.4019C29.5348 33.0998 29.6633 33.1473 29.7646 33.2335C29.8658 33.3196 29.9333 33.4388 29.955 33.57C30.33 36.1031 31.455 37.38 36.5419 37.38C40.5938 37.38 42.3206 36.4631 42.3206 34.3125C42.3206 33.0731 41.8313 32.1525 35.5331 31.5356C30.2681 31.0144 27.0131 29.8481 27.0131 25.6406C27.0131 21.7594 30.285 19.4438 35.7694 19.4438C41.9325 19.4438 44.9831 21.5831 45.3694 26.1731C45.3753 26.2498 45.3654 26.3268 45.3404 26.3995C45.3154 26.4721 45.2757 26.5389 45.2239 26.5956C45.1721 26.6524 45.1091 26.6979 45.039 26.7294C44.9689 26.7609 44.8931 26.7777 44.8163 26.7788H42.3113C42.1856 26.777 42.0641 26.7332 41.9663 26.6544C41.8684 26.5755 41.7997 26.4662 41.7713 26.3438C41.1731 23.6794 39.7088 22.8281 35.7713 22.8281C31.3463 22.8281 30.8325 24.3694 30.8325 25.5244C30.8325 26.9231 31.44 27.3319 37.4138 28.1213C43.3256 28.9031 46.1344 30.0094 46.1344 34.1644C46.1344 38.3569 42.6394 40.7569 36.5438 40.7569C28.1156 40.7681 26.3513 36.9038 26.3513 33.6619Z" fill="#83CD29"/>
</svg>
