<svg width="24" height="24" viewBox="0 0 24 24" fill="none" xmlns="http://www.w3.org/2000/svg">
<mask id="mask0_6_173" style="mask-type:alpha" maskUnits="userSpaceOnUse" x="0" y="0" width="24" height="24">
<rect width="24" height="24" fill="#D9D9D9"/>
</mask>
<g mask="url(#mask0_6_173)">
<path d="M12 15.6165C11.45 15.6165 10.9792 15.4459 10.5875 15.1047C10.1958 14.7636 10 14.3534 10 13.8743C10 13.3952 10.1958 12.9851 10.5875 12.6439C10.9792 12.3028 11.45 12.1322 12 12.1322C12.55 12.1322 13.0208 12.3028 13.4125 12.6439C13.8042 12.9851 14 13.3952 14 13.8743C14 14.3534 13.8042 14.7636 13.4125 15.1047C13.0208 15.4459 12.55 15.6165 12 15.6165ZM12 10.39C11.45 10.39 10.9792 10.2195 10.5875 9.87829C10.1958 9.53712 10 9.12699 10 8.6479C10 8.16881 10.1958 7.75868 10.5875 7.41751C10.9792 7.07634 11.45 6.90576 12 6.90576C12.55 6.90576 13.0208 7.07634 13.4125 7.41751C13.8042 7.75868 14 8.16881 14 8.6479C14 9.12699 13.8042 9.53712 13.4125 9.87829C13.0208 10.2195 12.55 10.39 12 10.39ZM12 5.16361C11.45 5.16361 10.9792 4.99303 10.5875 4.65186C10.1958 4.31069 10 3.90056 10 3.42147C10 2.94238 10.1958 2.53225 10.5875 2.19108C10.9792 1.84991 11.45 1.67932 12 1.67932C12.55 1.67932 13.0208 1.84991 13.4125 2.19108C13.8042 2.53225 14 2.94238 14 3.42147C14 3.90056 13.8042 4.31069 13.4125 4.65186C13.0208 4.99303 12.55 5.16361 12 5.16361Z" fill="#222222"/>
</g>
</svg>
