<svg width="48" height="48" viewBox="0 0 48 48" fill="none" xmlns="http://www.w3.org/2000/svg">
<mask id="mask0_25_49" style="mask-type:alpha" maskUnits="userSpaceOnUse" x="0" y="0" width="48" height="48">
<rect width="48" height="48" fill="#D9D9D9"/>
</mask>
<g mask="url(#mask0_25_49)">
<path d="M24 44C20.0667 44 16.75 42.65 14.05 39.95C11.35 37.25 10 33.9333 10 30V17C10 13.0667 11.35 9.75 14.05 7.05C16.75 4.35 20.0667 3 24 3C27.9333 3 31.25 4.35 33.95 7.05C36.65 9.75 38 13.0667 38 17V30C38 33.9333 36.65 37.25 33.95 39.95C31.25 42.65 27.9333 44 24 44ZM25.5 17H35C35 14.3 34.1167 11.9 32.35 9.8C30.5833 7.7 28.3 6.46667 25.5 6.1V17ZM13 17H22.5V6.1C19.7 6.46667 17.4167 7.7 15.65 9.8C13.8833 11.9 13 14.3 13 17ZM23.9894 41C27.0298 41 29.625 39.9275 31.775 37.7825C33.925 35.6375 35 33.0433 35 30V20H13V30C13 33.0433 14.0715 35.6375 16.2144 37.7825C18.3573 39.9275 20.949 41 23.9894 41Z" fill="white"/>
</g>
</svg>
