<svg width="29" height="29" viewBox="0 0 29 29" fill="none" xmlns="http://www.w3.org/2000/svg">
<rect width="29" height="29" rx="14.5" fill="#ECECEC"/>
<mask id="mask0_6_213" style="mask-type:alpha" maskUnits="userSpaceOnUse" x="5" y="5" width="24" height="24">
<rect x="5" y="5" width="24" height="24" fill="#D9D9D9"/>
</mask>
<g mask="url(#mask0_6_213)">
<path d="M19.4044 21.5368C18.5088 21.5368 17.7518 21.2276 17.1335 20.6092C16.5151 19.9908 16.2059 19.2338 16.2059 18.3383C16.2059 17.4427 16.5151 16.6857 17.1335 16.0673C17.7518 15.4489 18.5088 15.1397 19.4044 15.1397C20.3 15.1397 21.057 15.4489 21.6754 16.0673C22.2938 16.6857 22.6029 17.4427 22.6029 18.3383C22.6029 19.2338 22.2938 19.9908 21.6754 20.6092C21.057 21.2276 20.3 21.5368 19.4044 21.5368ZM19.4044 19.8309C19.8167 19.8309 20.1685 19.6852 20.4599 19.3938C20.7514 19.1024 20.8971 18.7505 20.8971 18.3383C20.8971 17.926 20.7514 17.5742 20.4599 17.2827C20.1685 16.9913 19.8167 16.8456 19.4044 16.8456C18.9922 16.8456 18.6403 16.9913 18.3489 17.2827C18.0575 17.5742 17.9118 17.926 17.9118 18.3383C17.9118 18.7505 18.0575 19.1024 18.3489 19.3938C18.6403 19.6852 18.9922 19.8309 19.4044 19.8309ZM7.67648 19.1912V17.4853H14.5V19.1912H7.67648ZM9.59559 13.8603C8.70001 13.8603 7.94302 13.5511 7.32464 12.9327C6.70626 12.3144 6.39706 11.5574 6.39706 10.6618C6.39706 9.7662 6.70626 9.00921 7.32464 8.39083C7.94302 7.77245 8.70001 7.46326 9.59559 7.46326C10.4912 7.46326 11.2482 7.77245 11.8665 8.39083C12.4849 9.00921 12.7941 9.7662 12.7941 10.6618C12.7941 11.5574 12.4849 12.3144 11.8665 12.9327C11.2482 13.5511 10.4912 13.8603 9.59559 13.8603ZM9.59559 12.1544C10.0078 12.1544 10.3597 12.0087 10.6511 11.7173C10.9425 11.4259 11.0882 11.074 11.0882 10.6618C11.0882 10.2495 10.9425 9.89769 10.6511 9.60627C10.3597 9.31485 10.0078 9.16914 9.59559 9.16914C9.18334 9.16914 8.8315 9.31485 8.54008 9.60627C8.24866 9.89769 8.10295 10.2495 8.10295 10.6618C8.10295 11.074 8.24866 11.4259 8.54008 11.7173C8.8315 12.0087 9.18334 12.1544 9.59559 12.1544ZM14.5 11.5147V9.80885H21.3235V11.5147H14.5Z" fill="#1C1B1F"/>
</g>
</svg>
