<svg width="24" height="24" viewBox="0 0 24 24" fill="none" xmlns="http://www.w3.org/2000/svg">
<mask id="mask0_6_170" style="mask-type:alpha" maskUnits="userSpaceOnUse" x="0" y="0" width="24" height="24">
<rect width="24" height="24" fill="#D9D9D9"/>
</mask>
<g mask="url(#mask0_6_170)">
<path d="M16 15.6165C15.1667 15.6165 14.4583 15.3624 13.875 14.8543C13.2917 14.3461 13 13.7291 13 13.0032C13 12.2774 13.2917 11.6603 13.875 11.1522C14.4583 10.6441 15.1667 10.39 16 10.39C16.1833 10.39 16.3583 10.4009 16.525 10.4227C16.6917 10.4445 16.85 10.4917 17 10.5642V3.42145H22V5.16359H19V13.0032C19 13.7291 18.7083 14.3461 18.125 14.8543C17.5417 15.3624 16.8333 15.6165 16 15.6165ZM3 12.1322V10.39H11V12.1322H3ZM3 8.64788V6.90574H15V8.64788H3ZM3 5.16359V3.42145H15V5.16359H3Z" fill="#222222"/>
</g>
</svg>
