<svg width="24" height="24" viewBox="0 0 24 24" fill="none" xmlns="http://www.w3.org/2000/svg">
<mask id="mask0_6_176" style="mask-type:alpha" maskUnits="userSpaceOnUse" x="0" y="0" width="24" height="24">
<rect width="24" height="24" fill="#D9D9D9"/>
</mask>
<g mask="url(#mask0_6_176)">
<path d="M12 15.4875C9.76667 15.4875 7.875 14.8125 6.325 13.4623C4.775 12.1121 4 10.4644 4 8.51897C4 6.57357 4.775 4.92579 6.325 3.57563C7.875 2.22547 9.76667 1.55038 12 1.55038C13.15 1.55038 14.25 1.75726 15.3 2.17102C16.35 2.58478 17.25 3.17639 18 3.94583V1.55038H20V7.64789H13V5.90575H17.2C16.6667 5.09275 15.9375 4.45396 15.0125 3.98939C14.0875 3.52482 13.0833 3.29253 12 3.29253C10.3333 3.29253 8.91667 3.80066 7.75 4.81691C6.58333 5.83316 6 7.06718 6 8.51897C6 9.97075 6.58333 11.2048 7.75 12.221C8.91667 13.2373 10.3333 13.7454 12 13.7454C13.2833 13.7454 14.4417 13.426 15.475 12.7872C16.5083 12.1484 17.2333 11.3064 17.65 10.2611H19.75C19.2833 11.8 18.3333 13.0558 16.9 14.0285C15.4667 15.0012 13.8333 15.4875 12 15.4875Z" fill="#1C1B1F"/>
</g>
</svg>
