<svg width="24" height="24" viewBox="0 0 24 24" fill="none" xmlns="http://www.w3.org/2000/svg">
<mask id="mask0_6_167" style="mask-type:alpha" maskUnits="userSpaceOnUse" x="0" y="0" width="24" height="24">
<rect width="24" height="24" fill="#D9D9D9"/>
</mask>
<g mask="url(#mask0_6_167)">
<path d="M5 16.4875C4.45 16.4875 3.97917 16.3169 3.5875 15.9758C3.19583 15.6346 3 15.2245 3 14.7454V2.55037C3 2.07128 3.19583 1.66115 3.5875 1.31998C3.97917 0.978813 4.45 0.808228 5 0.808228H19C19.55 0.808228 20.0208 0.978813 20.4125 1.31998C20.8042 1.66115 21 2.07128 21 2.55037V14.7454C21 15.2245 20.8042 15.6346 20.4125 15.9758C20.0208 16.3169 19.55 16.4875 19 16.4875H5ZM12 14.7454H19V2.55037H12V14.7454Z" fill="#222222"/>
</g>
</svg>
